<?xml version="1.0" encoding="utf-8"?>
<!-- Generator: Adobe Illustrator 16.0.0, SVG Export Plug-In . SVG Version: 6.00 Build 0)  -->
<!DOCTYPE svg PUBLIC "-//W3C//DTD SVG 1.1//EN" "http://www.w3.org/Graphics/SVG/1.1/DTD/svg11.dtd">
<svg version="1.1" id="Layer_1" xmlns="http://www.w3.org/2000/svg" xmlns:xlink="http://www.w3.org/1999/xlink" x="0px" y="0px"
	 width="612px" height="792px" viewBox="0 0 612 792" enable-background="new 0 0 612 792" xml:space="preserve">
<g>
	<path fill-rule="evenodd" clip-rule="evenodd" d="M492.159,648.998c0.418-103.75,0.049-206.993,0.188-310.558
		c0.036-26.088-0.04-52.123-0.017-78.176c0.006-6.882,0.034-13.959-0.015-20.592c-0.046-6.159,0.321-13.582-0.118-19.1
		c-0.444-5.596-14.124-3.972-19.241-2.675c-5.256,1.333-20.326-6.224-20.171,2.076c0.658,35.207-39.944,42.291-71.754,39.996
		c-28.798-2.077-58.903-0.332-88.064-0.315c-29.723,0.017-60.364-1.794-89.764,0.331c-31.87,2.304-72.268-4.904-71.844-39.924
		c0.107-8.886-15.936-0.361-21.866-2.2c-5.372-1.666-18.326-2.664-17.924,3.92c0.79,12.963,0.219,25.659,0.293,38.462
		c0.149,25.606-0.01,51.123,0.028,76.719c0.155,104.067-0.216,207.826,0.187,312.052
		C225.875,649.119,358.345,649.151,492.159,648.998L492.159,648.998L492.159,648.998z M403.893,217.073
		c0.448-7.874,0.144-14.421,0.328-21.743c0.101-4.034,0.052-7.796-0.127-11.823c-0.089-2.013,0.237-3.792-0.047-5.942
		c-0.303-2.283-3.508-1.97-5.897-1.944c-17.447,0.188-35.062-0.317-52.567,0.19c-9.8,0.284-20.244-2.352-25.453-9.954
		c-4.631-6.76-4.837-14.847-4.028-22.089c1.743-15.608,0.175-37.198-23.122-37.894c-23.306-0.697-27.058,20.67-24.934,36.403
		c1.051,7.778,0.884,16.458-3.948,23.572c-4.805,7.074-14.426,10.208-23.742,9.923c-17.655-0.541-34.793,0.285-52.771-0.333
		c-4.78-0.165-8.861,1.506-7.758,6.408c1.071,4.758-0.187,7.78,0.08,11.935c0.516,8.056-0.16,14.782,0.467,23.301
		C254.916,217.143,329.337,217.162,403.893,217.073L403.893,217.073L403.893,217.073z M68.978,690.953
		c74.629-0.155,149.338,0.033,223.991-0.063c75.222-0.098,150.515,0.277,225.683-0.191c11.023-0.069,20.772-9.745,21.646-18.875
		c0.716-7.491,0.06-15.752,0.164-23.569c0.216-16.124,0.04-32.437,0.062-48.658c0.042-32.442,0.009-64.912,0.012-97.372
		c0.007-64.924,0.003-129.849,0.005-194.763c0-16.228,0.002-32.469-0.004-48.689c-0.006-16.22,0.026-32.492-0.031-48.674
		c-0.031-8.728,1.598-17.909-4.527-25.488c-5.908-7.31-16.016-9.438-25.794-9.275c-19.345,0.323-38.138,0.426-57.86-0.177
		c2.089-17.962-11.901-36.557-32.259-40.05c-18.491-3.173-36.136-0.083-56.114-1.374C369.172,97.57,333.938,64.443,292.971,64
		c-41.534-0.448-78.068,32.977-72.627,69.726c-19.879,1.307-37.656-1.812-56.167,1.388c-20.294,3.507-34.294,21.954-32.25,39.992
		c-19.146,0.604-37.373,0.726-56.174,0.155c-10.984-0.333-22.326,2.425-28.271,11.086c-5.084,7.406-3.751,15.616-3.756,23.724
		c-0.021,32.483-0.02,64.925-0.018,97.388c0.003,65.418-0.006,130.824,0.006,196.241c0.006,32.955-0.052,65.913,0.025,98.859
		c0.038,16.226-0.301,32.483,0.136,48.675c0.229,8.502-1.708,17.22,1.354,25.404C48.444,685.233,58.691,690.976,68.978,690.953
		L68.978,690.953L68.978,690.953z"/>
	<path fill-rule="evenodd" clip-rule="evenodd" d="M392.743,610.893c1.707-3.004,3.372-5.068,3.472-8.22
		c0.395-12.607-0.162-24.082,0.466-36.829c13.845-0.924,26.766-0.065,40.668-0.461c3.802-0.109,6.481-1.01,10.253-2.454
		c18.445-7.065,16.078-31.984-1.816-37.323c-16.229-4.843-32.47,0.533-48.841-2.787c-3.754-17.75,9.204-47.19-19.737-54.723
		c-4.166-1.083-5.037-1.063-9.295-0.065c-29.896,7.011-16.355,37.07-20.597,54.958c-20.238,3.896-50.771-7.395-61.783,14.98
		c-1.674,3.402-2.34,4.207-1.585,8.055c5.154,26.242,38.918,18.516,59.804,19.27c2.552,0.093,4.211,2.12,4.462,4.683
		c1.337,13.605-3.479,26.992,2.773,39.817C357.97,624.117,384.368,625.629,392.743,610.893L392.743,610.893L392.743,610.893z"/>
	<path fill-rule="evenodd" clip-rule="evenodd" d="M145.153,509.47c33.257,0.837,65.711,0.596,98.54,0.162
		c17.042-0.226,35.093,4.006,49.476-5.91c15.162-10.454,4.43-34.775-13.816-35.224c-33.26-0.819-65.564-0.637-98.306-0.16
		c-17.086,0.249-35.251-4.031-49.679,5.686C116.145,484.274,126.888,509.011,145.153,509.47L145.153,509.47L145.153,509.47z"/>
	<path fill-rule="evenodd" clip-rule="evenodd" d="M192.782,426.129c33.57,0.402,66.745,0.154,100.185,0.111
		c34.005-0.043,67.804,0.429,101.856-0.182c17.13-0.308,33.962,2.596,51.025-1.862c18.768-4.905,19.978-32.391-0.394-37.857
		c-3.785-1.016-6.383-1.815-9.878-1.814c-95.775,0.035-191.128,0.004-286.918,0.012c-3.499,0-5.851,0.679-9.761,1.813
		c-22.089,6.406-17.308,35.532,3.021,38.744C159.389,427.855,175.73,425.923,192.782,426.129L192.782,426.129L192.782,426.129z"/>
	<path fill-rule="evenodd" clip-rule="evenodd" d="M146.999,342.656c58.875,0.066,117.71,0.038,176.5,0.021
		c29.396-0.009,59.011,0.123,88.152-0.079c15.613-0.108,33.404,3.05,44.26-8.447c10.739-11.375,2.049-29.681-13.461-32.28
		c-14.702-2.464-29.469-0.458-44.26-0.871c-14.719-0.411-29.423-0.075-44.127-0.091c-29.403-0.031-58.85-0.125-88.236,0.004
		c-29.386,0.128-58.929-0.476-88.195,0.217c-15.21,0.36-31.468-3.612-44.647,4.543c-13.518,8.366-11.011,27.903,4.031,34.164
		C140.44,341.262,143.427,342.652,146.999,342.656L146.999,342.656L146.999,342.656z"/>
</g>
</svg>
