<?xml version="1.0" encoding="utf-8"?>
<!-- Generator: Adobe Illustrator 16.0.0, SVG Export Plug-In . SVG Version: 6.00 Build 0)  -->
<!DOCTYPE svg PUBLIC "-//W3C//DTD SVG 1.1//EN" "http://www.w3.org/Graphics/SVG/1.1/DTD/svg11.dtd">
<svg version="1.1" id="Layer_1" xmlns="http://www.w3.org/2000/svg" xmlns:xlink="http://www.w3.org/1999/xlink" x="0px" y="0px"
	 width="612px" height="792px" viewBox="0 0 612 792" enable-background="new 0 0 612 792" xml:space="preserve">
<g>
	<path fill-rule="evenodd" clip-rule="evenodd" d="M266.346,685.924c8.051-1.718,15.22-6.508,18.146-15.096
		c2.666-7.827-0.055-16.032-3.104-22.873c-3.207-7.196-6.214-14.957-9.283-22.316c-3.145-7.54-6.693-15.331-10.418-22.525
		c-4.153-8.022-10.744-16.185-18.588-20.097c-6.478-3.234-13.688-4.476-20.879-5.667c-6.875-1.14-13.971-1.571-20.969-2.425
		c-7-0.854-14.055-1.107-21.133-1.985c-7.389-0.918-14.263-1.708-21.01-5.455c-7.041-3.907-9.201-12.962-8.415-21.341
		c0.379-4.038-0.308-8.17-0.825-12.004c-0.485-3.596-1.335-7.08-2.528-10.538c-2.809-8.138-7.416-15.022-11.412-22.619
		c-7.013-13.333-3.416-30.664-1.312-44.937c1.043-7.077,1.767-16.272-1.591-22.726c-3.833-7.365-11.909-12.315-19.225-14.497
		c-3.508-1.044-6.819-2.257-11.247-2.972c-3.993-0.645-2.187-5.356-0.254-8.405c4.784-7.541,9.439-15.256,14.728-22.589
		c5.341-7.407,10.768-14.785,15.909-22.303c4.992-7.298,9.604-14.828,13.698-22.598c3.767-7.149,6.883-14.665,8.889-22.563
		c0.947-3.732,0.84-7.899,0.539-12.101c-0.273-3.8,1.148-6.974,1.262-10.619c0.229-7.389-0.571-15.321,0.348-22.377
		c0.94-7.218,1.995-14.794,4.019-21.572c10.066-33.713,35.341-64.221,63.88-84.016c13.289-9.218,27.101-17.159,41.774-22.947
		c13.301-5.246,26.684-9.762,40.768-12.69c13.621-2.833,27.313-4.675,42.021-4.656c14.57,0.02,28.621,0.715,41.955,3.698
		c31.082,6.953,60.51,21.16,83.658,47.32c22.551,25.483,33.887,55.833,37.625,90.097c3.379,30.974-2.611,61.826-14.258,88.788
		c-13.16,30.47-31.582,59.183-44.205,90.035c-5.871,14.348-9.994,29.522-12.24,45.295c-1.033,7.246-1.391,14.705-1.354,22.491
		c0.033,7.532,0.9,14.483,1.887,21.514c2.201,15.692,6.537,30.57,12.002,44.955c5.74,15.115,12.014,30.203,17.791,45.169
		c3.023,7.835,6.744,16.914,15.039,18.823c7.699,1.773,15.053,0.422,21.197-4.726c6.416-5.378,9.105-14.552,6.73-22.458
		c-2.205-7.337-5.518-14.304-8.125-21.447c-5.484-15.034-12.611-29.696-16.865-45.12c-3.887-14.098-6.654-29.349-5.449-44.831
		c1.262-16.186,5.236-30.859,10.896-45.184c6.17-15.607,14.227-30.313,22.088-45.092c15.191-28.551,29.309-57.83,35.027-90.285
		c2.551-14.474,3.949-29.37,3.521-45.033c-0.215-7.837-0.98-15.012-1.686-22.558c-0.691-7.431-2.041-14.374-3.545-21.448
		c-7.148-33.596-21.473-64.175-44.676-90.41c-23.594-26.676-52.219-44.303-83.004-54.6c-13.535-4.527-27.422-7.981-41.975-9.502
		c-3.689-0.385-7.029-1.571-11.043-1.267c-3.551,0.269-6.611,0.27-9.895-0.558c-7.004-1.767-14.096,0.076-21.16,0.381
		c-29.039,1.252-56.602,7.779-82.688,18.035c-30.281,11.906-59.468,29.258-84.021,53.376c-24.726,24.288-44.426,54.538-53.43,88.135
		c-1.958,7.308-3.626,14.789-4.265,22.608c-0.323,3.962-1.374,7.659-1.207,11.831c0.146,3.621,0.549,7.329-0.283,10.557
		c-1.792,6.945,0.089,15.384-0.914,22.609c-0.601,4.326-3.24,7.971-5.199,11.718c-1.876,3.586-3.689,7.347-5.871,10.806
		c-9.641,15.286-21.031,29.953-30.911,45.031c-8.692,13.267-17.249,27.688-16.86,44.193c0.194,8.25,2.952,15.863,7.621,22.506
		c5.205,7.406,13.493,11.791,20.731,15.12c3.276,1.507,9.158,2.288,7.247,6.931c-1.644,3.992-0.436,7.324-0.853,10.957
		c-0.479,4.167-2.269,8.164-0.295,12.113c0.919,1.836,0.181,3.724,0.18,5.818c-0.001,1.829,0.519,3.28,0.872,4.872
		c1.714,7.715,3.661,15.341,6.724,22.521c3.288,7.705,9.195,14.194,10.984,22.546c0.786,3.674,0.132,7.779,0.261,11.76
		c0.121,3.728,0.86,6.942,1.458,10.531c1.31,7.861,3.489,14.572,7.316,21.521c8.771,15.922,24.565,24.937,40.286,28.804
		c13.326,3.28,27.975,4.149,42.011,5.677c7.206,0.784,14.581,1.239,20.874,5.125c7.127,4.404,10.924,13.144,14.033,20.895
		c2.963,7.39,6.744,14.839,9.205,22.584c2.46,7.74,8.537,14.849,16.369,16.324C261.867,686.424,263.947,686.437,266.346,685.924
		L266.346,685.924L266.346,685.924z"/>
	<path fill-rule="evenodd" clip-rule="evenodd" d="M48.715,541.996c1.482-0.069,2.175-0.771,3.375-1.059
		c6.853-1.652,11.591-7.807,13.153-14.854c1.235-5.563-0.37-12.176,0.588-17.797c1.034-6.059,1.083-12.544,0.9-19.063
		c-0.089-3.186,0.104-6.366,0.006-9.453c-0.049-1.544,0.102-3.507-0.021-4.636c-0.097-0.896,0.346-3.992-0.293-3.3
		c-2.076,2.253-4.839,5.858-7.12,8.788c-2.399,3.079-4.855,6.522-7.48,9.591c-4.909,5.737-9.191,12.209-14.175,17.826
		c-4.45,5.016-6.866,12.151-5.684,18.962c1.209,6.966,6.942,13.152,13.289,14.017C46.424,541.178,47.208,542.067,48.715,541.996
		L48.715,541.996L48.715,541.996z"/>
	<path fill-rule="evenodd" clip-rule="evenodd" d="M222.119,534.032c6.406-1.693,11.061-8.15,10.21-15.057
		c-0.868-7.048-7.241-12.314-13.588-12.055c-6.21,0.253-11.639,5.921-11.717,13.157c-0.076,7.088,3.813,13.189,10.528,13.982
		C219.404,534.279,220.392,534.488,222.119,534.032L222.119,534.032L222.119,534.032z"/>
	<path fill-rule="evenodd" clip-rule="evenodd" d="M182.374,498.425c6.397-1.647,11.044-8.143,10.208-15.041
		c-0.854-7.041-7.283-12.317-13.578-12.055c-6.158,0.259-11.797,5.925-11.666,13.159c0.128,7.056,3.879,12.847,10.454,13.99
		C179.613,498.796,180.649,498.869,182.374,498.425L182.374,498.425L182.374,498.425z"/>
	<path fill-rule="evenodd" clip-rule="evenodd" d="M378.855,476.761c1.063-0.193,1.506-1.184,2.346-1.175
		c13.336,0.133,25.57-10.458,31.188-23.114c2.617-5.893,4.762-12.029,8.01-17.648c3.719-6.429,8.502-12.223,13.861-17.759
		c9.947-10.277,16.98-22.116,20.283-35.729c2.844-11.714,1.887-24.612-1.844-35.671c-4.615-13.687-14.885-26.75-27.494-32.921
		c-5.295-2.591-10.438-5.267-16.559-5.234c-3.08,0.017-5.852-1.757-8.738-1.277c-2.541,0.421-5.336,0.692-7.826,1.132
		c-12.285,2.167-24.73,8.171-33.014,19.194c-4.154,5.531-8.238,11.098-9.088,17.973c-0.82,6.646,4.117,13.417,10.172,14.476
		c2.936,0.512,6.195-0.1,8.895-1.611c3.273-1.835,4.891-5.866,6.691-9.203c3.24-6.01,9.381-10.722,15.238-12.863
		c4.813-1.758,11.33-1.484,16.441-0.638c6.223,1.031,12.166,5.842,16.5,11.122c7.592,9.246,8.664,24.343,3.914,35.334
		c-5.785,13.382-19.656,22.867-26.869,35.604c-3.455,6.104-6.738,12.51-9.271,19.01c-2.342,6.015-5.77,12.673-12.844,13.074
		c-6.674,0.379-11.166-5.255-11.166-11.825c0-7.04-5.73-12.878-12.02-13.403c-6.396-0.534-12.912,5.48-13.447,12.331
		c-0.473,6.058,1.295,12.213,3.285,17.669c2.424,6.65,7.59,12.713,13.441,16.511c4.967,3.223,10.547,5.123,16.5,5.569
		C376.67,475.779,377.316,477.041,378.855,476.761L378.855,476.761L378.855,476.761z"/>
	<path fill-rule="evenodd" clip-rule="evenodd" d="M208.814,444.686c1.17-0.201,1.4-1.042,2.266-1.077
		c7.737-0.313,13.249-9.475,12.277-17.175c-0.514-4.064-2.286-8.313-5.502-10.921c-2.98-2.419-6.451-3.684-10.115-3.437
		c-7.453,0.504-14.006,6.75-13.952,15.438c0.052,8.125,4.25,14.771,11.698,16.107C206.79,443.855,207.115,444.981,208.814,444.686
		L208.814,444.686L208.814,444.686z"/>
	<path fill-rule="evenodd" clip-rule="evenodd" d="M162.493,420.144c6.405-1.695,11.06-8.148,10.209-15.058
		c-0.867-7.05-7.24-12.313-13.587-12.055c-6.21,0.254-11.641,5.926-11.719,13.159c-0.075,7.085,3.812,13.19,10.529,13.981
		C159.779,420.39,160.766,420.603,162.493,420.144L162.493,420.144L162.493,420.144z"/>
	<path fill-rule="evenodd" clip-rule="evenodd" d="M259.607,420.964c1.172-0.205,1.399-1.047,2.267-1.082
		c7.738-0.315,13.248-9.476,12.277-17.176c-0.513-4.064-2.288-8.311-5.503-10.92c-2.979-2.42-6.452-3.683-10.115-3.437
		c-7.45,0.503-14.006,6.751-13.951,15.438c0.052,8.124,4.251,14.773,11.697,16.107C257.582,420.128,257.906,421.26,259.607,420.964
		L259.607,420.964L259.607,420.964z"/>
	<path fill-rule="evenodd" clip-rule="evenodd" d="M228.606,375.427c2.271-0.184,4.453-0.638,6.655-1.044
		c9.2-1.698,18.445-3.564,25.761-10.566c2.031-1.943,2.946-4.78,3.573-7.391c0.658-2.731,1.246-5.83,0.318-8.528
		c-1.008-2.931-1.481-6.39-3.844-8.515c-8.311-7.473-18.336-9.835-27.901-13.812c-8.871-3.686-18.138-5.834-27.73-7.419
		c-2.23-0.369-4.395-0.573-6.65-1.06c-6.935-1.493-14.714,0.807-18.642,7.025c-3.505,5.548-3.566,13.39-1.271,19.36
		c1.026,2.665,3.109,5.008,5.49,6.507c1.46,0.92,2.821,1.847,4.393,2.478c2.091,0.839,4.455,0.666,6.778,0.885
		c1.071,0.101,0.849,1.96,0.728,3.073c-0.221,2.035,0.236,4.146,0.731,6.062c0.44,1.708,1.517,3.093,2.292,4.717
		c1.264,2.646,3.708,4.634,6.095,5.868C212.117,376.554,220.765,376.061,228.606,375.427L228.606,375.427L228.606,375.427z"/>
	<path fill-rule="evenodd" clip-rule="evenodd" d="M292.736,328.425c1.155-0.204,1.397-1.044,2.265-1.079
		c7.736-0.309,13.244-9.477,12.277-17.173c-0.51-4.063-2.3-8.322-5.499-10.919c-2.962-2.405-6.501-3.714-10.127-3.448
		c-7.378,0.539-13.839,6.842-13.922,15.459c-0.077,8.056,4.313,14.807,11.661,16.088
		C290.676,327.576,291.059,328.721,292.736,328.425L292.736,328.425L292.736,328.425z"/>
	<path fill-rule="evenodd" clip-rule="evenodd" d="M211.025,278.604c1.155-0.199,1.397-1.051,2.264-1.086
		c7.742-0.31,13.243-9.475,12.279-17.172c-0.509-4.061-2.302-8.32-5.5-10.918c-2.963-2.408-6.5-3.716-10.127-3.449
		c-7.378,0.542-13.837,6.842-13.92,15.46c-0.078,8.055,4.312,14.806,11.661,16.086C208.966,277.749,209.348,278.895,211.025,278.604
		L211.025,278.604L211.025,278.604z"/>
	<path fill-rule="evenodd" clip-rule="evenodd" d="M270.68,271.501c1.159-0.259,1.258-1.058,2.156-1.12
		c9.292-0.637,15.323-10.166,14.64-19.579c-0.667-9.167-8.438-16.541-16.875-16.698c-4.158-0.078-7.999,1.296-11.277,4.516
		c-3.406,3.345-5.818,7.169-5.676,12.118c0.126,4.445-0.164,8.814,2.503,12.059c3.07,3.736,6.395,7.605,11.096,7.638
		C268.524,270.444,269,271.877,270.68,271.501L270.68,271.501L270.68,271.501z"/>
</g>
</svg>
