<?xml version="1.0" encoding="utf-8"?>
<!-- Generator: Adobe Illustrator 16.0.0, SVG Export Plug-In . SVG Version: 6.00 Build 0)  -->
<!DOCTYPE svg PUBLIC "-//W3C//DTD SVG 1.1//EN" "http://www.w3.org/Graphics/SVG/1.1/DTD/svg11.dtd">
<svg version="1.1" id="Layer_1" xmlns="http://www.w3.org/2000/svg" xmlns:xlink="http://www.w3.org/1999/xlink" x="0px" y="0px"
	 width="612px" height="792px" viewBox="0 0 612 792" enable-background="new 0 0 612 792" xml:space="preserve">
<g>
	<path fill-rule="evenodd" clip-rule="evenodd" d="M158.246,495.152c85.16-0.15,169.873,0.133,254.979-0.141
		c0.779-12.714,0.639-22.117,0.108-34.824c-85.391-0.088-170.44-0.133-255.853,0.021
		C157.345,472.717,156.043,483.637,158.246,495.152L158.246,495.152L158.246,495.152z M157.809,426.144
		c86.158-0.356,169.731,0.263,255.614-0.311c0.378-58.651,0.508-114.941-0.064-173.654c-85.932-0.263-169.938-0.342-255.925,0.04
		C157.208,310.829,156.465,368.102,157.809,426.144L157.809,426.144L157.809,426.144z M413.327,218.065
		c-1.845-11.559,6.702-35.561-7.054-35.364c-14.451,0.207-27.532,0.221-41.251,0.196c-26.676-0.049-52.998,0.041-79.621-0.018
		c-26.622-0.059-52.805,0.167-79.677-0.077c-13.054-0.119-24.605,0.87-39.162-0.468c-15.526-1.427-7.889,22.748-9.028,35.782
		C243.128,218.365,327.674,218.464,413.327,218.065L413.327,218.065L413.327,218.065z M285.415,148.802
		c47.931-0.022,95.864,0.155,143.812-0.115c0.421-7.318,2.628-17.868-4.75-17.954c-7.392-0.087-14.652,1.924-20.503-0.459
		c-6.89-2.806-3.711-19.09-13.507-17.04c-8.318,1.742-13.919,0.386-20.817,0.458c-28.361,0.294-56.092,0.097-84.235,0.105
		c-28.143,0.008-55.896,0.161-84.222-0.088c-6.891-0.061-12.639,1.135-20.799-0.431c-8.681-1.665-7.454,10.268-11.672,15.641
		c-4.024,5.127-13.638,1.015-19.799,1.945c-3.663,0.553-9.182,0.015-7.896,6.065c1.076,5.068-0.77,6.466,0.602,11.825
		C189.518,148.867,237.484,148.825,285.415,148.802L285.415,148.802L285.415,148.802z M171.858,530.316
		c37.565-2.023,75.785-0.596,113.555-0.596s75.986-1.427,113.556,0.596c20.726,1.115,45.47-8.602,45.99-33.34
		c0.473-22.441,0.338-41.263,0.293-61.91c-0.178-82.534,0.136-164.045-0.095-246.353c-0.012-3.891,1.601-7.02,6.099-6.118
		c3.929,0.788,5.786,1.069,9.587-1.281c-0.147-28.681,10.128-82.633-33.229-84.81c-4.842-0.243-5.063,1.008-8.349-2.9
		c-3.636-4.323-5.183-6.209-8.917-9.274c-1.147-0.941-2.116-1.493-3.268-1.477s-2.049-3.164-3.281-3.164
		c-78.773-0.044-158.002-1.123-236.766,0.52c-5.407,0.113-8.854,7.022-13.31,11.172c-3.868,3.604-4.445,5.207-10.659,5.411
		c-42.959,1.41-33.111,56.16-33.035,84.453c4.335,2.978,7.26,1.583,11.898,1.334c3.372-0.181,3.715,3.113,3.706,6.177
		c-0.247,82.197,0.2,163.808-0.108,246.305c-0.077,20.639-0.089,39.474,0.354,61.918
		C126.365,521.72,151.134,531.433,171.858,530.316L171.858,530.316L171.858,530.316z"/>
	<path fill-rule="evenodd" clip-rule="evenodd" d="M277.659,368.06h-20.953L240.6,341.106v26.954h-16.867v-70.212h26.227
		c7.666,0,13.336,2.486,17.01,7.459c2.978,4.012,4.467,8.727,4.467,14.145c0,6.208-1.711,11.162-5.132,14.866
		c-2.186,2.366-5.194,4.013-9.027,4.938L277.659,368.06L277.659,368.06z M253.95,320.454c0-2.496-0.843-4.598-2.526-6.308
		c-1.59-1.607-4.149-2.411-7.678-2.411H240.6v17.489h3.146c3.561,0,6.12-0.803,7.678-2.41
		C253.107,325.07,253.95,322.95,253.95,320.454L253.95,320.454z"/>
	<polygon fill-rule="evenodd" clip-rule="evenodd" points="347.076,368.06 326.741,368.06 312.867,345.221 298.328,368.06 
		277.944,368.06 303.317,330.613 282.554,297.847 303.317,297.847 312.962,316.056 323.034,297.847 343.75,297.847 322.607,330.613 
		347.076,368.06 	"/>
</g>
</svg>
